<svg xmlns="http://www.w3.org/2000/svg" xmlns:xlink="http://www.w3.org/1999/xlink" contentStyleType="text/css" data-diagram-type="DESCRIPTION" height="280px" preserveAspectRatio="none" style="width:276px;height:280px;background:#FFFFFF;" version="1.1" viewBox="0 0 276 280" width="276px" zoomAndPan="magnify"><defs/><g><!--entity main--><g class="entity" data-entity="main" data-source-line="2" data-uid="ent0002" id="entity_main"><rect fill="#F1F1F1" height="49.0679" rx="2.5" ry="2.5" style="stroke:#181818;stroke-width:0.5;" width="73.2079" x="93.28" y="7"/><rect fill="#F1F1F1" height="10" style="stroke:#181818;stroke-width:0.5;" width="15" x="146.4879" y="12"/><rect fill="#F1F1F1" height="2" style="stroke:#181818;stroke-width:0.5;" width="4" x="144.4879" y="14"/><rect fill="#F1F1F1" height="2" style="stroke:#181818;stroke-width:0.5;" width="4" x="144.4879" y="18"/><text fill="#000000" font-family="sans-serif" font-size="14" lengthAdjust="spacing" textLength="33.2079" x="108.28" y="41.9659">main</text></g><!--entity handlers--><g class="entity" data-entity="handlers" data-source-line="3" data-uid="ent0003" id="entity_handlers"><rect fill="#F1F1F1" height="49.0679" rx="2.5" ry="2.5" style="stroke:#181818;stroke-width:0.5;" width="97.7638" x="7" y="116.06"/><rect fill="#F1F1F1" height="10" style="stroke:#181818;stroke-width:0.5;" width="15" x="84.7638" y="121.06"/><rect fill="#F1F1F1" height="2" style="stroke:#181818;stroke-width:0.5;" width="4" x="82.7638" y="123.06"/><rect fill="#F1F1F1" height="2" style="stroke:#181818;stroke-width:0.5;" width="4" x="82.7638" y="127.06"/><text fill="#000000" font-family="sans-serif" font-size="14" lengthAdjust="spacing" textLength="57.7638" x="22" y="151.0259">handlers</text></g><!--entity services--><g class="entity" data-entity="services" data-source-line="4" data-uid="ent0004" id="entity_services"><rect fill="#F1F1F1" height="49.0679" rx="2.5" ry="2.5" style="stroke:#181818;stroke-width:0.5;" width="92.4298" x="9.67" y="225.13"/><rect fill="#F1F1F1" height="10" style="stroke:#181818;stroke-width:0.5;" width="15" x="82.0998" y="230.13"/><rect fill="#F1F1F1" height="2" style="stroke:#181818;stroke-width:0.5;" width="4" x="80.0998" y="232.13"/><rect fill="#F1F1F1" height="2" style="stroke:#181818;stroke-width:0.5;" width="4" x="80.0998" y="236.13"/><text fill="#000000" font-family="sans-serif" font-size="14" lengthAdjust="spacing" textLength="52.4298" x="24.67" y="260.0959">services</text></g><!--entity infrastructure--><g class="entity" data-entity="infrastructure" data-source-line="5" data-uid="ent0005" id="entity_infrastructure"><rect fill="#F1F1F1" height="49.0679" rx="2.5" ry="2.5" style="stroke:#181818;stroke-width:0.5;" width="131.0137" x="139.38" y="116.06"/><rect fill="#F1F1F1" height="10" style="stroke:#181818;stroke-width:0.5;" width="15" x="250.3937" y="121.06"/><rect fill="#F1F1F1" height="2" style="stroke:#181818;stroke-width:0.5;" width="4" x="248.3937" y="123.06"/><rect fill="#F1F1F1" height="2" style="stroke:#181818;stroke-width:0.5;" width="4" x="248.3937" y="127.06"/><text fill="#000000" font-family="sans-serif" font-size="14" lengthAdjust="spacing" textLength="91.0137" x="154.38" y="151.0259">infrastructure</text></g><!--link main to handlers--><g class="link" data-entity-1="main" data-entity-2="handlers" data-source-line="7" data-uid="lnk6" id="link_main_handlers"><path d="M113.27,56.56 C101.09,74.19 88.0231,93.1053 75.8431,110.7153" fill="none" id="main-to-handlers" style="stroke:#181818;stroke-width:1;stroke-dasharray:7,7;"/><polygon fill="#181818" points="72.43,115.65,80.8394,110.5234,75.2742,111.5378,74.2598,105.9726,72.43,115.65" style="stroke:#181818;stroke-width:1;"/></g><!--link main to infrastructure--><g class="link" data-entity-1="main" data-entity-2="infrastructure" data-source-line="8" data-uid="lnk7" id="link_main_infrastructure"><path d="M146.71,56.56 C159.07,74.19 172.3268,93.1263 184.6668,110.7363" fill="none" id="main-to-infrastructure" style="stroke:#181818;stroke-width:1;stroke-dasharray:7,7;"/><polygon fill="#181818" points="188.11,115.65,186.221,105.984,185.2407,111.5553,179.6694,110.5749,188.11,115.65" style="stroke:#181818;stroke-width:1;"/></g><!--link handlers to services--><g class="link" data-entity-1="handlers" data-entity-2="services" data-source-line="9" data-uid="lnk8" id="link_handlers_services"><path d="M55.88,165.63 C55.88,183.26 55.88,201.1 55.88,218.72" fill="none" id="handlers-to-services" style="stroke:#181818;stroke-width:1;stroke-dasharray:7,7;"/><polygon fill="#181818" points="55.88,224.72,59.88,215.72,55.88,219.72,51.88,215.72,55.88,224.72" style="stroke:#181818;stroke-width:1;"/></g><!--SRC=[IyxFBSZFIyqhKSXDpCpZIePpCnBpKd9IYugHX8fJYyeoarEHXJBpqeeIYqkAIfDBIejIkRX0XYZewTaXjCD5q9J2583bu2O30000]--></g></svg>